<svg xmlns="http://www.w3.org/2000/svg" xmlns:xlink="http://www.w3.org/1999/xlink" width="50" zoomAndPan="magnify" viewBox="0 0 37.5 30.000001" height="40" preserveAspectRatio="xMidYMid meet" version="1.0"><defs><g/><clipPath id="79f2a1936b"><path d="M 7 3 L 30 3 L 30 27 L 7 27 Z M 7 3 " clip-rule="nonzero"/></clipPath><clipPath id="b0dd324404"><path d="M 22.863281 0 L 33.195312 20.324219 L 13.527344 30.324219 L 3.195312 10 Z M 22.863281 0 " clip-rule="nonzero"/></clipPath><clipPath id="948dc25781"><path d="M 22.863281 0 L 33.195312 20.324219 L 13.527344 30.324219 L 3.195312 10 Z M 22.863281 0 " clip-rule="nonzero"/></clipPath><clipPath id="358e9b2630"><path d="M 26.472656 7.898438 C 22.335938 3.15625 15.253906 2.554688 10.6875 6.5625 C 9.699219 7.429688 8.902344 8.457031 8.292969 9.617188 L 8.320312 9.628906 L 8.292969 9.617188 C 7.246094 11.597656 6.835938 13.847656 7.109375 16.128906 C 7.386719 18.457031 8.359375 20.636719 9.921875 22.429688 C 14.058594 27.167969 21.132812 27.769531 25.695312 23.765625 C 30.261719 19.757812 30.613281 12.644531 26.472656 7.898438 Z M 9.523438 20.300781 C 9.699219 20.503906 9.851562 20.660156 9.96875 20.773438 C 10.734375 21.515625 11.792969 21.578125 12.914062 21.640625 C 14.207031 21.710938 15.675781 21.792969 16.941406 22.976562 C 18.011719 23.976562 19.0625 24.851562 20.25 25.253906 C 19.046875 24.890625 17.984375 24.070312 16.941406 23.15625 C 15.683594 22.058594 14.25 21.929688 12.984375 21.816406 C 11.847656 21.710938 10.773438 21.617188 9.996094 20.847656 C 9.304688 20.164062 8.652344 19.277344 8.152344 18.238281 C 8.601562 19.148438 9.121094 19.839844 9.523438 20.300781 Z M 9.03125 19.589844 C 9.191406 19.800781 9.339844 19.988281 9.480469 20.148438 C 9.675781 20.371094 9.84375 20.542969 9.96875 20.660156 C 10.71875 21.375 11.757812 21.398438 12.855469 21.421875 C 14.183594 21.453125 15.691406 21.484375 16.96875 22.757812 C 18.019531 23.804688 18.992188 24.710938 20.152344 25.167969 C 19.015625 24.753906 18.003906 23.90625 16.972656 22.941406 C 15.695312 21.75 14.21875 21.667969 12.917969 21.59375 C 11.804688 21.53125 10.753906 21.472656 10 20.738281 C 9.871094 20.613281 9.480469 20.21875 9.03125 19.589844 Z M 16.914062 23.371094 C 15.679688 22.367188 14.289062 22.195312 13.0625 22.042969 C 11.898438 21.898438 10.796875 21.761719 9.996094 20.957031 C 9.371094 20.332031 8.78125 19.539062 8.304688 18.625 C 8.734375 19.421875 9.199219 20.039062 9.5625 20.453125 C 9.722656 20.632812 9.859375 20.777344 9.964844 20.882812 C 10.753906 21.660156 11.835938 21.757812 12.980469 21.863281 C 14.238281 21.976562 15.664062 22.101562 16.910156 23.191406 C 17.984375 24.128906 19.074219 24.96875 20.316406 25.324219 C 19.054688 25.007812 17.953125 24.21875 16.914062 23.371094 Z M 20.355469 25.382812 C 19.042969 25.117188 17.914062 24.367188 16.886719 23.585938 C 15.679688 22.671875 14.394531 22.472656 13.152344 22.277344 C 11.953125 22.089844 10.824219 21.914062 9.992188 21.066406 C 9.371094 20.433594 8.785156 19.636719 8.308594 18.714844 C 8.75 19.546875 9.230469 20.183594 9.601562 20.605469 C 9.742188 20.765625 9.863281 20.894531 9.960938 20.992188 C 10.773438 21.808594 11.882812 21.945312 13.054688 22.089844 C 14.335938 22.25 15.660156 22.414062 16.882812 23.410156 C 17.945312 24.273438 19.066406 25.078125 20.355469 25.382812 Z M 9.613281 20.730469 C 9.726562 20.859375 9.839844 20.984375 9.957031 21.101562 C 10.800781 21.960938 11.9375 22.136719 13.144531 22.324219 C 14.382812 22.519531 15.660156 22.71875 16.855469 23.625 C 17.816406 24.355469 18.957031 25.121094 20.257812 25.417969 C 19.023438 25.179688 17.90625 24.539062 16.855469 23.800781 C 15.6875 22.980469 14.453125 22.746094 13.257812 22.519531 C 12.023438 22.289062 10.855469 22.066406 9.992188 21.179688 C 9.308594 20.476562 8.667969 19.578125 8.171875 18.535156 C 8.5625 19.335938 9.050781 20.089844 9.613281 20.730469 Z M 9.644531 20.875 C 9.746094 20.992188 9.847656 21.105469 9.957031 21.214844 C 10.828125 22.113281 12.003906 22.335938 13.25 22.570312 C 14.4375 22.796875 15.667969 23.027344 16.828125 23.84375 C 17.835938 24.554688 19.195312 25.390625 20.730469 25.550781 C 20.800781 25.558594 20.871094 25.5625 20.941406 25.566406 C 19.425781 25.511719 18.082031 24.832031 16.828125 24.015625 C 15.703125 23.285156 14.527344 23.027344 13.386719 22.777344 C 12.105469 22.492188 10.890625 22.226562 9.992188 21.289062 C 9.324219 20.589844 8.695312 19.710938 8.203125 18.691406 C 8.597656 19.488281 9.085938 20.234375 9.644531 20.875 Z M 9.773438 21.578125 C 9.828125 21.640625 9.882812 21.703125 9.941406 21.765625 C 11.105469 23.035156 12.644531 23.527344 14.277344 24.050781 C 15.070312 24.304688 15.886719 24.566406 16.6875 24.925781 C 18.304688 25.65625 19.832031 25.9375 21.300781 25.769531 C 19.835938 25.972656 18.304688 25.746094 16.683594 25.089844 C 16.03125 24.828125 15.371094 24.605469 14.730469 24.390625 C 12.941406 23.796875 11.25 23.234375 9.980469 21.835938 C 9.691406 21.519531 9.417969 21.171875 9.15625 20.800781 C 9.351562 21.070312 9.554688 21.328125 9.769531 21.578125 Z M 9.105469 20.621094 C 9.304688 20.902344 9.519531 21.175781 9.746094 21.433594 C 9.808594 21.507812 9.875 21.582031 9.941406 21.65625 C 11.019531 22.820312 12.449219 23.246094 13.960938 23.703125 C 14.867188 23.972656 15.804688 24.253906 16.714844 24.710938 C 18.082031 25.394531 19.371094 25.742188 20.613281 25.753906 C 19.363281 25.78125 18.066406 25.488281 16.710938 24.875 C 15.910156 24.511719 15.085938 24.25 14.292969 23.996094 C 12.671875 23.476562 11.136719 22.984375 9.984375 21.726562 C 9.671875 21.390625 9.378906 21.019531 9.105469 20.621094 Z M 9.660156 21.007812 C 9.757812 21.113281 9.851562 21.21875 9.953125 21.324219 C 10.863281 22.277344 12.085938 22.542969 13.375 22.828125 C 14.511719 23.078125 15.683594 23.335938 16.800781 24.058594 C 18.308594 25.042969 19.535156 25.519531 20.777344 25.601562 C 19.289062 25.546875 17.972656 24.933594 16.800781 24.230469 C 15.730469 23.589844 14.617188 23.3125 13.542969 23.046875 C 12.199219 22.710938 10.933594 22.394531 9.988281 21.398438 C 9.542969 20.925781 9.113281 20.371094 8.734375 19.75 C 9.011719 20.195312 9.324219 20.617188 9.660156 21.007812 Z M 9.691406 21.148438 C 9.773438 21.246094 9.859375 21.34375 9.949219 21.433594 C 10.90625 22.445312 12.179688 22.761719 13.53125 23.097656 C 14.601562 23.363281 15.707031 23.640625 16.773438 24.277344 C 18.238281 25.15625 19.503906 25.589844 20.738281 25.648438 C 19.222656 25.625 17.890625 25.058594 16.769531 24.445312 C 15.769531 23.894531 14.734375 23.609375 13.734375 23.332031 C 12.320312 22.945312 10.988281 22.574219 9.988281 21.507812 C 9.605469 21.101562 9.25 20.644531 8.925781 20.148438 C 9.160156 20.5 9.414062 20.835938 9.691406 21.148438 Z M 9.71875 21.292969 C 9.792969 21.378906 9.867188 21.460938 9.945312 21.542969 C 10.957031 22.625 12.296875 22.996094 13.71875 23.386719 C 14.714844 23.664062 15.746094 23.949219 16.742188 24.492188 C 17.785156 25.0625 19.003906 25.59375 20.382812 25.691406 C 19.21875 25.640625 18.015625 25.296875 16.742188 24.660156 C 15.824219 24.203125 14.886719 23.921875 13.976562 23.648438 C 12.472656 23.195312 11.050781 22.769531 9.984375 21.617188 C 9.652344 21.257812 9.335938 20.859375 9.046875 20.429688 C 9.257812 20.730469 9.480469 21.019531 9.71875 21.292969 Z M 9.796875 21.71875 C 9.84375 21.773438 9.890625 21.824219 9.9375 21.875 C 11.21875 23.285156 12.914062 23.851562 14.710938 24.449219 C 15.351562 24.660156 16.011719 24.882812 16.660156 25.144531 C 18.046875 25.703125 19.367188 25.953125 20.632812 25.890625 C 19.359375 25.992188 18.027344 25.796875 16.652344 25.304688 C 16.226562 25.148438 15.792969 25.003906 15.371094 24.863281 C 13.335938 24.183594 11.417969 23.539062 9.980469 21.945312 C 9.589844 21.511719 9.238281 21.050781 8.925781 20.570312 C 9.191406 20.972656 9.484375 21.359375 9.796875 21.71875 Z M 9.824219 21.859375 C 9.859375 21.902344 9.898438 21.945312 9.933594 21.988281 C 11.382812 23.59375 13.3125 24.238281 15.351562 24.921875 C 15.773438 25.0625 16.207031 25.207031 16.632812 25.359375 C 18.019531 25.859375 19.359375 26.054688 20.644531 25.949219 C 19.351562 26.09375 18 25.953125 16.625 25.519531 L 16.417969 25.453125 C 14.089844 24.722656 11.683594 23.964844 9.976562 22.054688 C 9.949219 22.023438 9.921875 21.992188 9.890625 21.957031 C 9.589844 21.613281 9.3125 21.25 9.058594 20.871094 C 9.296875 21.21875 9.550781 21.546875 9.824219 21.859375 Z M 9.84375 21.996094 C 9.871094 22.03125 9.902344 22.066406 9.933594 22.097656 C 11.648438 24.019531 14.0625 24.777344 16.398438 25.511719 L 16.605469 25.578125 C 17.992188 26.015625 19.347656 26.15625 20.652344 26.015625 C 19.339844 26.195312 17.972656 26.109375 16.59375 25.734375 C 14.34375 25.121094 11.796875 24.21875 9.976562 22.164062 C 9.957031 22.144531 9.9375 22.121094 9.917969 22.101562 C 9.714844 21.867188 9.519531 21.621094 9.335938 21.375 C 9.5 21.585938 9.667969 21.796875 9.84375 21.996094 Z M 9.972656 22.386719 C 9.769531 22.152344 9.578125 21.910156 9.394531 21.664062 C 9.558594 21.878906 9.726562 22.089844 9.90625 22.292969 L 9.925781 22.316406 C 11.519531 24.128906 13.75 25.371094 16.550781 26.011719 C 17.875 26.3125 19.179688 26.371094 20.4375 26.195312 C 16.71875 26.828125 12.703125 25.511719 9.972656 22.386719 Z M 16.566406 25.949219 C 13.777344 25.308594 11.558594 24.074219 9.972656 22.277344 L 9.953125 22.253906 C 9.757812 22.023438 9.570312 21.792969 9.390625 21.550781 C 9.542969 21.753906 9.703125 21.949219 9.871094 22.140625 C 9.890625 22.164062 9.910156 22.183594 9.929688 22.207031 C 11.761719 24.273438 14.316406 25.179688 16.578125 25.792969 C 18.1875 26.230469 19.777344 26.285156 21.289062 25.96875 C 19.78125 26.320312 18.183594 26.320312 16.566406 25.949219 Z M 25.550781 23.800781 C 25.53125 23.816406 25.511719 23.832031 25.496094 23.847656 C 25.472656 23.863281 25.453125 23.878906 25.433594 23.898438 C 25.417969 23.910156 25.402344 23.925781 25.382812 23.9375 C 25.367188 23.949219 25.347656 23.964844 25.332031 23.980469 C 25.316406 23.992188 25.304688 24 25.289062 24.011719 C 25.269531 24.027344 25.25 24.042969 25.230469 24.054688 C 25.226562 24.058594 25.222656 24.0625 25.222656 24.0625 C 25.179688 24.09375 25.140625 24.121094 25.101562 24.152344 C 25.097656 24.152344 25.097656 24.15625 25.09375 24.15625 C 25.035156 24.199219 24.972656 24.242188 24.910156 24.28125 C 24.898438 24.289062 24.890625 24.296875 24.878906 24.304688 C 24.84375 24.328125 24.8125 24.351562 24.777344 24.371094 C 24.769531 24.375 24.761719 24.382812 24.753906 24.386719 C 24.664062 24.445312 24.578125 24.496094 24.492188 24.546875 C 24.460938 24.566406 24.429688 24.582031 24.402344 24.601562 C 24.339844 24.636719 24.273438 24.671875 24.210938 24.707031 C 24.164062 24.730469 24.117188 24.757812 24.066406 24.78125 C 24.0625 24.785156 24.054688 24.789062 24.050781 24.789062 C 24.035156 24.796875 24.019531 24.804688 24.007812 24.8125 C 20.71875 26.433594 18.753906 24.476562 17 22.726562 C 15.710938 21.441406 14.195312 21.40625 12.859375 21.378906 C 11.765625 21.351562 10.738281 21.332031 10 20.628906 C 9.636719 20.285156 7.1875 17.804688 7.21875 14.015625 C 7.226562 13.53125 7.269531 13.035156 7.363281 12.527344 C 7.363281 12.507812 7.367188 12.488281 7.371094 12.46875 C 7.386719 12.382812 7.40625 12.296875 7.425781 12.214844 C 7.441406 12.132812 7.457031 12.054688 7.476562 11.972656 C 7.484375 11.9375 7.496094 11.90625 7.503906 11.871094 C 7.535156 11.75 7.566406 11.628906 7.601562 11.507812 C 7.640625 11.375 7.683594 11.242188 7.726562 11.109375 C 7.734375 11.09375 7.738281 11.078125 7.742188 11.0625 C 7.78125 10.953125 7.820312 10.847656 7.859375 10.738281 C 7.878906 10.691406 7.898438 10.644531 7.914062 10.597656 C 7.933594 10.546875 7.957031 10.5 7.976562 10.453125 C 7.984375 10.429688 7.992188 10.410156 8 10.390625 C 8.003906 10.382812 8.007812 10.371094 8.011719 10.363281 C 8.039062 10.300781 8.066406 10.234375 8.09375 10.171875 C 8.097656 10.164062 8.101562 10.15625 8.105469 10.148438 C 8.109375 10.144531 8.109375 10.140625 8.113281 10.136719 C 8.121094 10.117188 8.128906 10.097656 8.136719 10.078125 C 8.160156 10.03125 8.183594 9.984375 8.207031 9.9375 C 8.210938 9.925781 8.214844 9.914062 8.222656 9.90625 C 8.230469 9.886719 8.242188 9.867188 8.25 9.84375 C 8.257812 9.828125 8.265625 9.8125 8.273438 9.800781 C 8.300781 9.75 8.324219 9.695312 8.351562 9.648438 C 8.957031 8.5 9.765625 7.488281 10.746094 6.628906 C 15.273438 2.652344 22.300781 3.25 26.410156 7.957031 C 30.515625 12.664062 30.179688 19.738281 25.652344 23.714844 C 25.617188 23.746094 25.582031 23.773438 25.550781 23.800781 Z M 25.550781 23.800781 " clip-rule="nonzero"/></clipPath><linearGradient x1="-152.635271" gradientTransform="matrix(0.0148042, 0.0291137, -0.0289272, 0.0147094, 22.861534, -0.000496452)" y1="339.92001" x2="865.457616" gradientUnits="userSpaceOnUse" y2="339.92001" id="f30efdb86c"><stop stop-opacity="1" stop-color="rgb(16.099548%, 39.599609%, 94.499207%)" offset="0"/><stop stop-opacity="1" stop-color="rgb(16.099548%, 39.599609%, 94.499207%)" offset="0.0625"/><stop stop-opacity="1" stop-color="rgb(15.962219%, 39.685059%, 94.544983%)" offset="0.09375"/><stop stop-opacity="1" stop-color="rgb(15.480042%, 39.99176%, 94.709778%)" offset="0.0976562"/><stop stop-opacity="1" stop-color="rgb(15.133667%, 40.211487%, 94.828796%)" offset="0.101562"/><stop stop-opacity="1" stop-color="rgb(14.787292%, 40.429688%, 94.946289%)" offset="0.105469"/><stop stop-opacity="1" stop-color="rgb(14.440918%, 40.649414%, 95.065308%)" offset="0.109375"/><stop stop-opacity="1" stop-color="rgb(14.094543%, 40.869141%, 95.1828%)" offset="0.113281"/><stop stop-opacity="1" stop-color="rgb(13.748169%, 41.088867%, 95.301819%)" offset="0.117188"/><stop stop-opacity="1" stop-color="rgb(13.401794%, 41.308594%, 95.419312%)" offset="0.121094"/><stop stop-opacity="1" stop-color="rgb(13.05542%, 41.52832%, 95.53833%)" offset="0.125"/><stop stop-opacity="1" stop-color="rgb(12.709045%, 41.746521%, 95.657349%)" offset="0.128906"/><stop stop-opacity="1" stop-color="rgb(12.362671%, 41.966248%, 95.776367%)" offset="0.132812"/><stop stop-opacity="1" stop-color="rgb(12.016296%, 42.185974%, 95.89386%)" offset="0.136719"/><stop stop-opacity="1" stop-color="rgb(11.669922%, 42.405701%, 96.012878%)" offset="0.140625"/><stop stop-opacity="1" stop-color="rgb(11.323547%, 42.623901%, 96.130371%)" offset="0.144531"/><stop stop-opacity="1" stop-color="rgb(10.977173%, 42.843628%, 96.24939%)" offset="0.148438"/><stop stop-opacity="1" stop-color="rgb(10.630798%, 43.063354%, 96.366882%)" offset="0.152344"/><stop stop-opacity="1" stop-color="rgb(10.284424%, 43.283081%, 96.485901%)" offset="0.15625"/><stop stop-opacity="1" stop-color="rgb(9.938049%, 43.502808%, 96.603394%)" offset="0.160156"/><stop stop-opacity="1" stop-color="rgb(9.591675%, 43.722534%, 96.722412%)" offset="0.164062"/><stop stop-opacity="1" stop-color="rgb(9.2453%, 43.940735%, 96.839905%)" offset="0.167969"/><stop stop-opacity="1" stop-color="rgb(8.898926%, 44.160461%, 96.958923%)" offset="0.171875"/><stop stop-opacity="1" stop-color="rgb(8.552551%, 44.380188%, 97.076416%)" offset="0.175781"/><stop stop-opacity="1" stop-color="rgb(8.206177%, 44.599915%, 97.195435%)" offset="0.179688"/><stop stop-opacity="1" stop-color="rgb(7.859802%, 44.819641%, 97.312927%)" offset="0.183594"/><stop stop-opacity="1" stop-color="rgb(7.513428%, 45.039368%, 97.431946%)" offset="0.1875"/><stop stop-opacity="1" stop-color="rgb(7.167053%, 45.257568%, 97.549438%)" offset="0.191406"/><stop stop-opacity="1" stop-color="rgb(6.820679%, 45.477295%, 97.668457%)" offset="0.195312"/><stop stop-opacity="1" stop-color="rgb(6.474304%, 45.697021%, 97.78595%)" offset="0.199219"/><stop stop-opacity="1" stop-color="rgb(6.12793%, 45.916748%, 97.904968%)" offset="0.203125"/><stop stop-opacity="1" stop-color="rgb(5.781555%, 46.134949%, 98.023987%)" offset="0.207031"/><stop stop-opacity="1" stop-color="rgb(5.435181%, 46.354675%, 98.143005%)" offset="0.210937"/><stop stop-opacity="1" stop-color="rgb(5.088806%, 46.574402%, 98.260498%)" offset="0.214844"/><stop stop-opacity="1" stop-color="rgb(4.742432%, 46.794128%, 98.379517%)" offset="0.21875"/><stop stop-opacity="1" stop-color="rgb(4.396057%, 47.013855%, 98.497009%)" offset="0.222656"/><stop stop-opacity="1" stop-color="rgb(4.049683%, 47.233582%, 98.616028%)" offset="0.226562"/><stop stop-opacity="1" stop-color="rgb(3.703308%, 47.451782%, 98.733521%)" offset="0.230469"/><stop stop-opacity="1" stop-color="rgb(3.356934%, 47.671509%, 98.852539%)" offset="0.234375"/><stop stop-opacity="1" stop-color="rgb(3.010559%, 47.891235%, 98.970032%)" offset="0.238281"/><stop stop-opacity="1" stop-color="rgb(2.664185%, 48.110962%, 99.08905%)" offset="0.242187"/><stop stop-opacity="1" stop-color="rgb(2.31781%, 48.330688%, 99.206543%)" offset="0.246094"/><stop stop-opacity="1" stop-color="rgb(1.971436%, 48.550415%, 99.325562%)" offset="0.25"/><stop stop-opacity="1" stop-color="rgb(1.625061%, 48.768616%, 99.443054%)" offset="0.253906"/><stop stop-opacity="1" stop-color="rgb(1.278687%, 48.988342%, 99.562073%)" offset="0.257812"/><stop stop-opacity="1" stop-color="rgb(0.932312%, 49.208069%, 99.679565%)" offset="0.261719"/><stop stop-opacity="1" stop-color="rgb(0.585938%, 49.427795%, 99.798584%)" offset="0.265625"/><stop stop-opacity="1" stop-color="rgb(0.343323%, 49.580383%, 99.880981%)" offset="0.269531"/><stop stop-opacity="1" stop-color="rgb(0.100708%, 49.734497%, 99.964905%)" offset="0.273438"/><stop stop-opacity="1" stop-color="rgb(0.430298%, 49.525452%, 99.85199%)" offset="0.277344"/><stop stop-opacity="1" stop-color="rgb(0.761414%, 49.316406%, 99.739075%)" offset="0.28125"/><stop stop-opacity="1" stop-color="rgb(1.092529%, 49.105835%, 99.62616%)" offset="0.285156"/><stop stop-opacity="1" stop-color="rgb(1.423645%, 48.89679%, 99.513245%)" offset="0.289062"/><stop stop-opacity="1" stop-color="rgb(1.753235%, 48.687744%, 99.40033%)" offset="0.292969"/><stop stop-opacity="1" stop-color="rgb(2.084351%, 48.478699%, 99.287415%)" offset="0.296875"/><stop stop-opacity="1" stop-color="rgb(2.41394%, 48.268127%, 99.1745%)" offset="0.300781"/><stop stop-opacity="1" stop-color="rgb(2.745056%, 48.059082%, 99.061584%)" offset="0.304688"/><stop stop-opacity="1" stop-color="rgb(3.076172%, 47.850037%, 98.948669%)" offset="0.308594"/><stop stop-opacity="1" stop-color="rgb(3.407288%, 47.640991%, 98.835754%)" offset="0.3125"/><stop stop-opacity="1" stop-color="rgb(3.736877%, 47.43042%, 98.722839%)" offset="0.316406"/><stop stop-opacity="1" stop-color="rgb(4.067993%, 47.221375%, 98.609924%)" offset="0.320312"/><stop stop-opacity="1" stop-color="rgb(4.399109%, 47.010803%, 98.495483%)" offset="0.324219"/><stop stop-opacity="1" stop-color="rgb(4.730225%, 46.801758%, 98.382568%)" offset="0.328125"/><stop stop-opacity="1" stop-color="rgb(5.059814%, 46.592712%, 98.269653%)" offset="0.332031"/><stop stop-opacity="1" stop-color="rgb(5.39093%, 46.383667%, 98.156738%)" offset="0.335938"/><stop stop-opacity="1" stop-color="rgb(5.72052%, 46.173096%, 98.043823%)" offset="0.339844"/><stop stop-opacity="1" stop-color="rgb(6.051636%, 45.96405%, 97.930908%)" offset="0.34375"/><stop stop-opacity="1" stop-color="rgb(6.382751%, 45.755005%, 97.817993%)" offset="0.347656"/><stop stop-opacity="1" stop-color="rgb(6.713867%, 45.545959%, 97.705078%)" offset="0.351562"/><stop stop-opacity="1" stop-color="rgb(7.043457%, 45.335388%, 97.592163%)" offset="0.355469"/><stop stop-opacity="1" stop-color="rgb(7.374573%, 45.126343%, 97.479248%)" offset="0.359375"/><stop stop-opacity="1" stop-color="rgb(7.704163%, 44.917297%, 97.366333%)" offset="0.363281"/><stop stop-opacity="1" stop-color="rgb(8.035278%, 44.708252%, 97.253418%)" offset="0.367188"/><stop stop-opacity="1" stop-color="rgb(8.366394%, 44.497681%, 97.140503%)" offset="0.371094"/><stop stop-opacity="1" stop-color="rgb(8.69751%, 44.288635%, 97.027588%)" offset="0.375"/><stop stop-opacity="1" stop-color="rgb(9.0271%, 44.07959%, 96.914673%)" offset="0.378906"/><stop stop-opacity="1" stop-color="rgb(9.358215%, 43.870544%, 96.801758%)" offset="0.382812"/><stop stop-opacity="1" stop-color="rgb(9.687805%, 43.659973%, 96.688843%)" offset="0.386719"/><stop stop-opacity="1" stop-color="rgb(10.018921%, 43.450928%, 96.575928%)" offset="0.390625"/><stop stop-opacity="1" stop-color="rgb(10.350037%, 43.240356%, 96.463013%)" offset="0.394531"/><stop stop-opacity="1" stop-color="rgb(10.681152%, 43.031311%, 96.350098%)" offset="0.398438"/><stop stop-opacity="1" stop-color="rgb(11.010742%, 42.822266%, 96.237183%)" offset="0.402344"/><stop stop-opacity="1" stop-color="rgb(11.341858%, 42.61322%, 96.124268%)" offset="0.40625"/><stop stop-opacity="1" stop-color="rgb(11.672974%, 42.402649%, 96.011353%)" offset="0.410156"/><stop stop-opacity="1" stop-color="rgb(12.004089%, 42.193604%, 95.898438%)" offset="0.414062"/><stop stop-opacity="1" stop-color="rgb(12.333679%, 41.984558%, 95.785522%)" offset="0.417969"/><stop stop-opacity="1" stop-color="rgb(12.664795%, 41.775513%, 95.672607%)" offset="0.421875"/><stop stop-opacity="1" stop-color="rgb(12.994385%, 41.564941%, 95.559692%)" offset="0.425781"/><stop stop-opacity="1" stop-color="rgb(13.3255%, 41.355896%, 95.446777%)" offset="0.429688"/><stop stop-opacity="1" stop-color="rgb(13.656616%, 41.146851%, 95.333862%)" offset="0.433594"/><stop stop-opacity="1" stop-color="rgb(13.987732%, 40.937805%, 95.220947%)" offset="0.4375"/><stop stop-opacity="1" stop-color="rgb(14.317322%, 40.727234%, 95.108032%)" offset="0.441406"/><stop stop-opacity="1" stop-color="rgb(14.648438%, 40.518188%, 94.995117%)" offset="0.445312"/><stop stop-opacity="1" stop-color="rgb(14.978027%, 40.309143%, 94.882202%)" offset="0.449219"/><stop stop-opacity="1" stop-color="rgb(15.309143%, 40.100098%, 94.769287%)" offset="0.453125"/><stop stop-opacity="1" stop-color="rgb(15.640259%, 39.889526%, 94.656372%)" offset="0.457031"/><stop stop-opacity="1" stop-color="rgb(15.971375%, 39.680481%, 94.543457%)" offset="0.460938"/><stop stop-opacity="1" stop-color="rgb(15.740967%, 39.825439%, 94.621277%)" offset="0.464844"/><stop stop-opacity="1" stop-color="rgb(15.512085%, 39.970398%, 94.699097%)" offset="0.46875"/><stop stop-opacity="1" stop-color="rgb(15.148926%, 40.200806%, 94.822693%)" offset="0.472656"/><stop stop-opacity="1" stop-color="rgb(14.785767%, 40.431213%, 94.947815%)" offset="0.476562"/><stop stop-opacity="1" stop-color="rgb(14.421082%, 40.661621%, 95.071411%)" offset="0.480469"/><stop stop-opacity="1" stop-color="rgb(14.057922%, 40.892029%, 95.196533%)" offset="0.484375"/><stop stop-opacity="1" stop-color="rgb(13.693237%, 41.122437%, 95.320129%)" offset="0.488281"/><stop stop-opacity="1" stop-color="rgb(13.330078%, 41.352844%, 95.445251%)" offset="0.492187"/><stop stop-opacity="1" stop-color="rgb(12.966919%, 41.583252%, 95.568848%)" offset="0.496094"/><stop stop-opacity="1" stop-color="rgb(12.60376%, 41.81366%, 95.69397%)" offset="0.5"/><stop stop-opacity="1" stop-color="rgb(12.239075%, 42.044067%, 95.817566%)" offset="0.503906"/><stop stop-opacity="1" stop-color="rgb(11.875916%, 42.274475%, 95.942688%)" offset="0.507812"/><stop stop-opacity="1" stop-color="rgb(11.51123%, 42.504883%, 96.066284%)" offset="0.511719"/><stop stop-opacity="1" stop-color="rgb(11.148071%, 42.735291%, 96.18988%)" offset="0.515625"/><stop stop-opacity="1" stop-color="rgb(10.784912%, 42.965698%, 96.313477%)" offset="0.519531"/><stop stop-opacity="1" stop-color="rgb(10.421753%, 43.196106%, 96.438599%)" offset="0.523437"/><stop stop-opacity="1" stop-color="rgb(10.057068%, 43.426514%, 96.562195%)" offset="0.527344"/><stop stop-opacity="1" stop-color="rgb(9.693909%, 43.656921%, 96.687317%)" offset="0.53125"/><stop stop-opacity="1" stop-color="rgb(9.329224%, 43.887329%, 96.810913%)" offset="0.535156"/><stop stop-opacity="1" stop-color="rgb(8.966064%, 44.117737%, 96.936035%)" offset="0.539062"/><stop stop-opacity="1" stop-color="rgb(8.601379%, 44.348145%, 97.059631%)" offset="0.542969"/><stop stop-opacity="1" stop-color="rgb(8.23822%, 44.578552%, 97.184753%)" offset="0.546875"/><stop stop-opacity="1" stop-color="rgb(7.875061%, 44.80896%, 97.30835%)" offset="0.550781"/><stop stop-opacity="1" stop-color="rgb(7.511902%, 45.039368%, 97.433472%)" offset="0.554687"/><stop stop-opacity="1" stop-color="rgb(7.147217%, 45.269775%, 97.557068%)" offset="0.558594"/><stop stop-opacity="1" stop-color="rgb(6.784058%, 45.500183%, 97.68219%)" offset="0.5625"/><stop stop-opacity="1" stop-color="rgb(6.419373%, 45.730591%, 97.805786%)" offset="0.566406"/><stop stop-opacity="1" stop-color="rgb(6.056213%, 45.960999%, 97.929382%)" offset="0.570312"/><stop stop-opacity="1" stop-color="rgb(5.693054%, 46.191406%, 98.052979%)" offset="0.574219"/><stop stop-opacity="1" stop-color="rgb(5.329895%, 46.421814%, 98.178101%)" offset="0.578125"/><stop stop-opacity="1" stop-color="rgb(4.96521%, 46.652222%, 98.301697%)" offset="0.582031"/><stop stop-opacity="1" stop-color="rgb(4.602051%, 46.882629%, 98.426819%)" offset="0.585938"/><stop stop-opacity="1" stop-color="rgb(4.237366%, 47.113037%, 98.550415%)" offset="0.589844"/><stop stop-opacity="1" stop-color="rgb(3.874207%, 47.343445%, 98.675537%)" offset="0.59375"/><stop stop-opacity="1" stop-color="rgb(3.509521%, 47.573853%, 98.799133%)" offset="0.597656"/><stop stop-opacity="1" stop-color="rgb(3.146362%, 47.80426%, 98.924255%)" offset="0.601562"/><stop stop-opacity="1" stop-color="rgb(2.783203%, 48.034668%, 99.047852%)" offset="0.605469"/><stop stop-opacity="1" stop-color="rgb(2.420044%, 48.265076%, 99.172974%)" offset="0.609375"/><stop stop-opacity="1" stop-color="rgb(2.055359%, 48.495483%, 99.29657%)" offset="0.613281"/><stop stop-opacity="1" stop-color="rgb(1.6922%, 48.727417%, 99.420166%)" offset="0.617187"/><stop stop-opacity="1" stop-color="rgb(1.327515%, 48.957825%, 99.543762%)" offset="0.621094"/><stop stop-opacity="1" stop-color="rgb(0.964355%, 49.188232%, 99.668884%)" offset="0.625"/><stop stop-opacity="1" stop-color="rgb(0.601196%, 49.41864%, 99.79248%)" offset="0.628906"/><stop stop-opacity="1" stop-color="rgb(0.238037%, 49.649048%, 99.917603%)" offset="0.632812"/><stop stop-opacity="1" stop-color="rgb(0.405884%, 49.54071%, 99.859619%)" offset="0.640625"/><stop stop-opacity="1" stop-color="rgb(1.002502%, 49.162292%, 99.656677%)" offset="0.644531"/><stop stop-opacity="1" stop-color="rgb(1.431274%, 48.892212%, 99.510193%)" offset="0.648438"/><stop stop-opacity="1" stop-color="rgb(1.858521%, 48.620605%, 99.363708%)" offset="0.652344"/><stop stop-opacity="1" stop-color="rgb(2.285767%, 48.350525%, 99.217224%)" offset="0.65625"/><stop stop-opacity="1" stop-color="rgb(2.713013%, 48.078918%, 99.07074%)" offset="0.660156"/><stop stop-opacity="1" stop-color="rgb(3.141785%, 47.808838%, 98.925781%)" offset="0.664062"/><stop stop-opacity="1" stop-color="rgb(3.569031%, 47.537231%, 98.779297%)" offset="0.667969"/><stop stop-opacity="1" stop-color="rgb(3.997803%, 47.265625%, 98.632812%)" offset="0.671875"/><stop stop-opacity="1" stop-color="rgb(4.425049%, 46.994019%, 98.486328%)" offset="0.675781"/><stop stop-opacity="1" stop-color="rgb(4.853821%, 46.723938%, 98.34137%)" offset="0.679687"/><stop stop-opacity="1" stop-color="rgb(5.281067%, 46.452332%, 98.194885%)" offset="0.683594"/><stop stop-opacity="1" stop-color="rgb(5.709839%, 46.182251%, 98.048401%)" offset="0.6875"/><stop stop-opacity="1" stop-color="rgb(6.137085%, 45.910645%, 97.901917%)" offset="0.691406"/><stop stop-opacity="1" stop-color="rgb(6.565857%, 45.639038%, 97.756958%)" offset="0.695312"/><stop stop-opacity="1" stop-color="rgb(6.993103%, 45.367432%, 97.610474%)" offset="0.699219"/><stop stop-opacity="1" stop-color="rgb(7.420349%, 45.097351%, 97.463989%)" offset="0.703125"/><stop stop-opacity="1" stop-color="rgb(7.847595%, 44.825745%, 97.317505%)" offset="0.707031"/><stop stop-opacity="1" stop-color="rgb(8.276367%, 44.555664%, 97.171021%)" offset="0.710938"/><stop stop-opacity="1" stop-color="rgb(8.703613%, 44.284058%, 97.024536%)" offset="0.714844"/><stop stop-opacity="1" stop-color="rgb(9.132385%, 44.012451%, 96.879578%)" offset="0.71875"/><stop stop-opacity="1" stop-color="rgb(9.559631%, 43.740845%, 96.733093%)" offset="0.722656"/><stop stop-opacity="1" stop-color="rgb(9.988403%, 43.470764%, 96.586609%)" offset="0.726562"/><stop stop-opacity="1" stop-color="rgb(10.415649%, 43.199158%, 96.440125%)" offset="0.730469"/><stop stop-opacity="1" stop-color="rgb(10.844421%, 42.929077%, 96.295166%)" offset="0.734375"/><stop stop-opacity="1" stop-color="rgb(11.271667%, 42.657471%, 96.148682%)" offset="0.738281"/><stop stop-opacity="1" stop-color="rgb(11.700439%, 42.385864%, 96.002197%)" offset="0.742187"/><stop stop-opacity="1" stop-color="rgb(12.127686%, 42.114258%, 95.855713%)" offset="0.746094"/><stop stop-opacity="1" stop-color="rgb(12.554932%, 41.844177%, 95.709229%)" offset="0.75"/><stop stop-opacity="1" stop-color="rgb(12.982178%, 41.572571%, 95.562744%)" offset="0.753906"/><stop stop-opacity="1" stop-color="rgb(13.41095%, 41.30249%, 95.417786%)" offset="0.757812"/><stop stop-opacity="1" stop-color="rgb(13.838196%, 41.030884%, 95.271301%)" offset="0.761719"/><stop stop-opacity="1" stop-color="rgb(14.266968%, 40.760803%, 95.124817%)" offset="0.765625"/><stop stop-opacity="1" stop-color="rgb(14.694214%, 40.489197%, 94.978333%)" offset="0.769531"/><stop stop-opacity="1" stop-color="rgb(15.122986%, 40.21759%, 94.833374%)" offset="0.773438"/><stop stop-opacity="1" stop-color="rgb(15.550232%, 39.945984%, 94.68689%)" offset="0.777344"/><stop stop-opacity="1" stop-color="rgb(15.979004%, 39.675903%, 94.540405%)" offset="0.78125"/><stop stop-opacity="1" stop-color="rgb(15.725708%, 39.834595%, 94.625854%)" offset="0.785156"/><stop stop-opacity="1" stop-color="rgb(15.473938%, 39.994812%, 94.71283%)" offset="0.789062"/><stop stop-opacity="1" stop-color="rgb(15.110779%, 40.22522%, 94.836426%)" offset="0.792969"/><stop stop-opacity="1" stop-color="rgb(14.74762%, 40.455627%, 94.961548%)" offset="0.796875"/><stop stop-opacity="1" stop-color="rgb(14.382935%, 40.686035%, 95.085144%)" offset="0.800781"/><stop stop-opacity="1" stop-color="rgb(14.019775%, 40.916443%, 95.210266%)" offset="0.804687"/><stop stop-opacity="1" stop-color="rgb(13.65509%, 41.146851%, 95.333862%)" offset="0.808594"/><stop stop-opacity="1" stop-color="rgb(13.291931%, 41.377258%, 95.457458%)" offset="0.8125"/><stop stop-opacity="1" stop-color="rgb(12.928772%, 41.607666%, 95.581055%)" offset="0.816406"/><stop stop-opacity="1" stop-color="rgb(12.565613%, 41.838074%, 95.706177%)" offset="0.820312"/><stop stop-opacity="1" stop-color="rgb(12.200928%, 42.068481%, 95.829773%)" offset="0.824219"/><stop stop-opacity="1" stop-color="rgb(11.837769%, 42.298889%, 95.954895%)" offset="0.828125"/><stop stop-opacity="1" stop-color="rgb(11.473083%, 42.529297%, 96.078491%)" offset="0.832031"/><stop stop-opacity="1" stop-color="rgb(11.109924%, 42.759705%, 96.203613%)" offset="0.835937"/><stop stop-opacity="1" stop-color="rgb(10.745239%, 42.990112%, 96.327209%)" offset="0.839844"/><stop stop-opacity="1" stop-color="rgb(10.38208%, 43.22052%, 96.452332%)" offset="0.84375"/><stop stop-opacity="1" stop-color="rgb(10.018921%, 43.450928%, 96.575928%)" offset="0.847656"/><stop stop-opacity="1" stop-color="rgb(9.655762%, 43.681335%, 96.70105%)" offset="0.851562"/><stop stop-opacity="1" stop-color="rgb(9.291077%, 43.911743%, 96.824646%)" offset="0.855469"/><stop stop-opacity="1" stop-color="rgb(8.927917%, 44.142151%, 96.949768%)" offset="0.859375"/><stop stop-opacity="1" stop-color="rgb(8.563232%, 44.372559%, 97.073364%)" offset="0.863281"/><stop stop-opacity="1" stop-color="rgb(8.200073%, 44.602966%, 97.19696%)" offset="0.867188"/><stop stop-opacity="1" stop-color="rgb(7.836914%, 44.833374%, 97.320557%)" offset="0.871094"/><stop stop-opacity="1" stop-color="rgb(7.473755%, 45.063782%, 97.445679%)" offset="0.875"/><stop stop-opacity="1" stop-color="rgb(7.10907%, 45.294189%, 97.569275%)" offset="0.878906"/><stop stop-opacity="1" stop-color="rgb(6.745911%, 45.524597%, 97.694397%)" offset="0.882812"/><stop stop-opacity="1" stop-color="rgb(6.381226%, 45.755005%, 97.817993%)" offset="0.886719"/><stop stop-opacity="1" stop-color="rgb(6.018066%, 45.985413%, 97.943115%)" offset="0.890625"/><stop stop-opacity="1" stop-color="rgb(5.653381%, 46.21582%, 98.066711%)" offset="0.894531"/><stop stop-opacity="1" stop-color="rgb(5.290222%, 46.446228%, 98.191833%)" offset="0.898437"/><stop stop-opacity="1" stop-color="rgb(4.927063%, 46.676636%, 98.31543%)" offset="0.902344"/><stop stop-opacity="1" stop-color="rgb(4.563904%, 46.907043%, 98.440552%)" offset="0.90625"/><stop stop-opacity="1" stop-color="rgb(4.199219%, 47.137451%, 98.564148%)" offset="0.910156"/><stop stop-opacity="1" stop-color="rgb(3.83606%, 47.367859%, 98.68927%)" offset="0.914062"/><stop stop-opacity="1" stop-color="rgb(3.471375%, 47.598267%, 98.812866%)" offset="0.917969"/><stop stop-opacity="1" stop-color="rgb(3.108215%, 47.828674%, 98.936462%)" offset="0.921875"/><stop stop-opacity="1" stop-color="rgb(2.745056%, 48.059082%, 99.060059%)" offset="0.925781"/><stop stop-opacity="1" stop-color="rgb(2.381897%, 48.28949%, 99.185181%)" offset="0.929688"/><stop stop-opacity="1" stop-color="rgb(2.017212%, 48.519897%, 99.308777%)" offset="0.933594"/><stop stop-opacity="1" stop-color="rgb(1.654053%, 48.750305%, 99.433899%)" offset="0.9375"/><stop stop-opacity="1" stop-color="rgb(1.289368%, 48.980713%, 99.557495%)" offset="0.941406"/><stop stop-opacity="1" stop-color="rgb(0.926208%, 49.211121%, 99.682617%)" offset="0.945312"/><stop stop-opacity="1" stop-color="rgb(0.561523%, 49.441528%, 99.806213%)" offset="0.949219"/><stop stop-opacity="1" stop-color="rgb(0.198364%, 49.671936%, 99.931335%)" offset="0.953125"/><stop stop-opacity="1" stop-color="rgb(0.0991821%, 49.734497%, 99.964905%)" offset="0.96875"/><stop stop-opacity="1" stop-color="rgb(0%, 49.798584%, 100%)" offset="1"/></linearGradient></defs><g clip-path="url(#79f2a1936b)"><g clip-path="url(#b0dd324404)"><g clip-path="url(#948dc25781)"><g clip-path="url(#358e9b2630)"><path fill="url(#f30efdb86c)" d="M 25.730469 -7.050781 L -3.347656 7.734375 L 11.722656 37.375 L 40.800781 22.589844 Z M 25.730469 -7.050781 " fill-rule="nonzero"/></g></g></g></g><g fill="#0c6cfd" fill-opacity="1"><g transform="translate(11.499482, 9.611603)"><g><path d="M 0.476562 -0.546875 L -0.148438 -1.09375 L -0.269531 -0.957031 L 0.121094 -0.613281 L -0.457031 -0.738281 L -0.578125 -0.601562 L 0.046875 -0.0546875 L 0.167969 -0.195312 L -0.222656 -0.535156 L 0.355469 -0.410156 Z M 0.476562 -0.546875 "/></g></g></g><g fill="#0c6cfd" fill-opacity="1"><g transform="translate(12.676262, 8.387765)"><g><path d="M -0.015625 -0.832031 C 0.046875 -0.878906 0.132812 -0.902344 0.21875 -0.859375 L 0.378906 -0.980469 C 0.230469 -1.082031 0.0234375 -1.078125 -0.121094 -0.96875 C -0.308594 -0.824219 -0.34375 -0.554688 -0.203125 -0.367188 C -0.0625 -0.179688 0.210938 -0.144531 0.398438 -0.285156 C 0.585938 -0.429688 0.621094 -0.695312 0.476562 -0.886719 L 0.460938 -0.90625 L 0.132812 -0.660156 L 0.21875 -0.550781 L 0.386719 -0.675781 C 0.425781 -0.550781 0.359375 -0.46875 0.296875 -0.417969 C 0.191406 -0.339844 0.03125 -0.367188 -0.0546875 -0.476562 C -0.136719 -0.589844 -0.121094 -0.75 -0.015625 -0.832031 Z M -0.015625 -0.832031 "/></g></g></g><g fill="#0c6cfd" fill-opacity="1"><g transform="translate(14.212725, 7.346314)"><g><path d="M 0.148438 -0.992188 L 0.355469 -0.558594 C 0.402344 -0.453125 0.398438 -0.378906 0.285156 -0.324219 C 0.171875 -0.273438 0.113281 -0.316406 0.0625 -0.417969 L -0.140625 -0.851562 L -0.308594 -0.773438 L -0.0898438 -0.316406 C 0.00390625 -0.117188 0.167969 -0.0664062 0.363281 -0.160156 C 0.558594 -0.253906 0.625 -0.410156 0.53125 -0.613281 L 0.3125 -1.070312 Z M 0.148438 -0.992188 "/></g></g></g><g fill="#0c6cfd" fill-opacity="1"><g transform="translate(15.781335, 6.696781)"><g><path d="M 0.308594 -0.078125 L 0.484375 -0.121094 L 0.386719 -0.507812 L 0.578125 -1.003906 L 0.367188 -0.949219 L 0.261719 -0.628906 L 0.0195312 -0.863281 L -0.195312 -0.808594 L 0.210938 -0.460938 Z M 0.308594 -0.078125 "/></g></g></g><g fill="#0c6cfd" fill-opacity="1"><g transform="translate(17.468686, 6.365685)"><g><path d="M 0.609375 -0.03125 L 0.109375 0 L 0.0625 -0.875 L 0.5625 -0.90625 L 0.5625 -0.75 L 0.25 -0.734375 L 0.265625 -0.546875 L 0.5625 -0.5625 L 0.578125 -0.40625 L 0.28125 -0.390625 L 0.28125 -0.171875 L 0.59375 -0.1875 Z M 0.5 -1.3125 C 0.507812 -1.28125 0.503906 -1.25 0.484375 -1.21875 C 0.460938 -1.1875 0.429688 -1.171875 0.390625 -1.171875 C 0.359375 -1.160156 0.332031 -1.160156 0.3125 -1.171875 C 0.289062 -1.179688 0.269531 -1.191406 0.25 -1.203125 C 0.238281 -1.210938 0.226562 -1.21875 0.21875 -1.21875 C 0.195312 -1.21875 0.179688 -1.210938 0.171875 -1.203125 C 0.160156 -1.191406 0.15625 -1.175781 0.15625 -1.15625 L 0.078125 -1.15625 C 0.0859375 -1.195312 0.0976562 -1.226562 0.109375 -1.25 C 0.128906 -1.28125 0.160156 -1.296875 0.203125 -1.296875 C 0.222656 -1.296875 0.242188 -1.289062 0.265625 -1.28125 C 0.285156 -1.28125 0.304688 -1.273438 0.328125 -1.265625 C 0.347656 -1.265625 0.367188 -1.265625 0.390625 -1.265625 C 0.398438 -1.265625 0.40625 -1.269531 0.40625 -1.28125 C 0.414062 -1.289062 0.421875 -1.300781 0.421875 -1.3125 Z M 0.375 -1.140625 C 0.394531 -1.117188 0.414062 -1.09375 0.4375 -1.0625 C 0.46875 -1.039062 0.5 -1.015625 0.53125 -0.984375 L 0.53125 -0.96875 L 0.453125 -0.96875 C 0.429688 -0.976562 0.40625 -0.988281 0.375 -1 C 0.34375 -1.007812 0.316406 -1.023438 0.296875 -1.046875 C 0.273438 -1.023438 0.253906 -1.003906 0.234375 -0.984375 C 0.222656 -0.972656 0.203125 -0.960938 0.171875 -0.953125 L 0.09375 -0.953125 L 0.09375 -0.96875 C 0.101562 -0.988281 0.117188 -1.015625 0.140625 -1.046875 C 0.171875 -1.078125 0.195312 -1.101562 0.21875 -1.125 Z M 0.375 -1.140625 "/></g></g></g><g fill="#0c6cfd" fill-opacity="1"><g transform="translate(19.057186, 6.356005)"><g><path d="M 0.71875 0.0976562 L 0.832031 -0.726562 L 0.648438 -0.75 L 0.578125 -0.238281 L 0.363281 -0.789062 L 0.183594 -0.8125 L 0.0742188 0.0078125 L 0.253906 0.0351562 L 0.324219 -0.480469 L 0.539062 0.0703125 Z M 0.71875 0.0976562 "/></g></g></g><g fill="#0c6cfd" fill-opacity="1"><g transform="translate(20.736442, 6.67984)"><g/></g></g><g fill="#0c6cfd" fill-opacity="1"><g transform="translate(21.879406, 7.08518)"><g><path d="M 0.980469 0.519531 L 1.226562 -0.289062 L 1.035156 -0.390625 L 0.609375 0.0429688 L 0.730469 -0.554688 L 0.539062 -0.65625 L 0.00390625 0.00390625 L 0.183594 0.0976562 L 0.539062 -0.363281 L 0.414062 0.21875 L 0.570312 0.304688 L 0.984375 -0.125 L 0.800781 0.425781 Z M 0.980469 0.519531 "/></g></g></g><g fill="#0c6cfd" fill-opacity="1"><g transform="translate(23.601299, 8.138614)"><g><path d="M 0.199219 0.160156 L 0.722656 -0.488281 L 0.578125 -0.601562 L 0.0585938 0.046875 Z M 0.199219 0.160156 "/></g></g></g><g fill="#0c6cfd" fill-opacity="1"><g transform="translate(24.532708, 8.960492)"><g><path d="M 0.480469 0.542969 L 1.105469 -0.0078125 L 0.984375 -0.144531 L 0.59375 0.199219 L 0.792969 -0.359375 L 0.671875 -0.496094 L 0.046875 0.0546875 L 0.171875 0.191406 L 0.558594 -0.152344 L 0.359375 0.40625 Z M 0.480469 0.542969 "/></g></g></g><g fill="#0c6cfd" fill-opacity="1"><g transform="translate(25.591286, 10.291586)"><g><path d="M 0.984375 0.0390625 L 0.699219 0.207031 L 0.5625 -0.03125 L 0.847656 -0.195312 L 0.753906 -0.355469 L 0.0351562 0.0625 L 0.128906 0.222656 L 0.417969 0.0546875 L 0.554688 0.289062 L 0.265625 0.457031 L 0.367188 0.628906 L 1.082031 0.207031 Z M 0.984375 0.0390625 "/></g></g></g><g fill="#0c6cfd" fill-opacity="1"><g transform="translate(26.366539, 11.815953)"><g/></g></g><g fill="#0c6cfd" fill-opacity="1"><g transform="translate(26.742822, 12.972703)"><g><path d="M 0.402344 0.609375 C 0.324219 0.589844 0.257812 0.519531 0.242188 0.433594 C 0.21875 0.300781 0.3125 0.175781 0.449219 0.148438 C 0.589844 0.125 0.722656 0.207031 0.746094 0.339844 C 0.761719 0.421875 0.730469 0.511719 0.664062 0.558594 L 0.703125 0.761719 C 0.859375 0.675781 0.949219 0.496094 0.914062 0.308594 C 0.871094 0.078125 0.648438 -0.078125 0.417969 -0.0351562 C 0.183594 0.0078125 0.03125 0.234375 0.0742188 0.464844 C 0.109375 0.652344 0.257812 0.789062 0.4375 0.8125 Z M 0.402344 0.609375 "/></g></g></g><g fill="#0c6cfd" fill-opacity="1"><g transform="translate(26.977659, 14.764185)"><g><path d="M 0.820312 0.546875 L 0.488281 0.539062 L 0.496094 0.265625 L 0.828125 0.273438 L 0.828125 0.0898438 L 0 0.0742188 L -0.00390625 0.257812 L 0.328125 0.261719 L 0.324219 0.535156 L -0.0117188 0.53125 L -0.0117188 0.726562 L 0.816406 0.742188 Z M 0.820312 0.546875 "/></g></g></g><g fill="#0c6cfd" fill-opacity="1"><g transform="translate(26.858778, 16.459915)"><g><path d="M 1.039062 0.734375 L 1.070312 0.59375 L 0.855469 0.386719 L 0.824219 0.519531 L 0.984375 0.648438 L 0.785156 0.699219 L 0.753906 0.832031 Z M 0.195312 0.582031 L 0.242188 0.375 L 0.507812 0.542969 Z M -0.179688 0.816406 L 0.703125 0.667969 L 0.738281 0.515625 L 0 0.0078125 L -0.0429688 0.199219 L 0.105469 0.292969 L 0.0390625 0.601562 L -0.136719 0.625 Z M -0.179688 0.816406 "/></g></g></g><g fill="#0c6cfd" fill-opacity="1"><g transform="translate(26.39363, 18.139538)"><g><path d="M 0.535156 0.847656 L 0.09375 0.652344 C -0.0117188 0.605469 -0.0546875 0.550781 -0.00390625 0.433594 C 0.046875 0.320312 0.121094 0.3125 0.226562 0.359375 L 0.664062 0.554688 L 0.738281 0.386719 L 0.273438 0.179688 C 0.0703125 0.09375 -0.0859375 0.160156 -0.171875 0.359375 C -0.257812 0.558594 -0.207031 0.71875 -0.00390625 0.808594 L 0.460938 1.015625 Z M 0.535156 0.847656 "/></g></g></g><g fill="#007fff" fill-opacity="1"><g transform="translate(13.811078, 17.06785)"><g><path d="M 4.671875 -1.082031 C 4.671875 -0.269531 4.511719 -0.0546875 4.179688 -0.0703125 L 4.179688 0 L 5.890625 0 L 5.890625 -0.0703125 C 5.5625 -0.0546875 5.402344 -0.269531 5.402344 -1.082031 L 5.402344 -4.15625 C 5.402344 -4.972656 5.5625 -5.195312 5.890625 -5.179688 L 5.890625 -5.246094 L 4.671875 -5.246094 L 2.898438 -0.191406 L 1.144531 -5.246094 L 0 -5.246094 L 0 -5.179688 C 0.328125 -5.195312 0.492188 -4.972656 0.492188 -4.15625 L 0.492188 -1.082031 C 0.492188 -0.269531 0.328125 -0.0546875 0 -0.0703125 L 0 0 L 1.121094 0 L 1.121094 -0.0703125 C 0.789062 -0.0546875 0.628906 -0.269531 0.628906 -1.082031 L 0.628906 -4.496094 L 2.195312 0 L 2.976562 0 L 4.671875 -4.832031 Z M 4.671875 -1.082031 "/></g></g></g><g fill="#0c6cfd" fill-opacity="1"><g transform="translate(17.767653, 19.449179)"><g><path d="M 4.601562 -4.542969 C 4.089844 -4.988281 3.359375 -5.246094 2.648438 -5.246094 C 1.1875 -5.246094 0 -4.097656 0 -2.625 C 0 -1.121094 1.144531 0 2.648438 0 C 3.5 0 4.3125 -0.390625 4.765625 -1.203125 L 4.710938 -1.242188 C 4.417969 -0.835938 4.019531 -0.574219 3.566406 -0.46875 C 2.417969 -0.191406 1.25 -0.875 0.851562 -1.980469 C 0.484375 -3 0.613281 -4.535156 1.78125 -4.957031 C 2.585938 -5.246094 3.527344 -4.988281 4.320312 -3.796875 Z M 4.601562 -4.542969 "/></g></g></g></svg>